<svg width="285" height="85" viewBox="0 0 285 85" fill="none" xmlns="http://www.w3.org/2000/svg">
<g clip-path="url(#clip0_149_7)">
<path d="M84.5701 0H91.0681C94.6918 0 96.9668 3.92685 95.1549 7.07652L76.8188 39.0231C75.9742 40.482 74.4212 41.3956 72.732 41.3956H66.6018C62.9918 41.3956 60.7304 37.5096 62.4878 34.36L80.4561 2.39974C81.2871 0.913539 82.8673 0 84.5701 0Z" fill="#F8F8F8"/>
<path d="M58.7007 19.1025C60.5125 22.2522 65.0488 22.2522 66.8607 19.1025L70.3344 13.0895L73.8082 7.07652C75.62 3.92685 73.3587 0 69.7214 0H55.8399C52.2163 0 49.9413 3.92685 51.7531 7.07652L55.2269 13.0895L58.7007 19.1025Z" fill="#F8F8F8"/>
<path d="M55.8535 76.9971L52.5977 82.6283C50.7859 85.7643 46.2495 85.778 44.4377 82.6283L25.9654 50.7635C25.1208 49.3046 25.1208 47.5048 25.9654 46.0322L29.0305 40.7146C30.8287 37.5922 35.3378 37.565 37.1768 40.6737L55.8263 72.2249C56.6981 73.6975 56.6981 75.5109 55.8535 76.9835V76.9971Z" fill="#F8F8F8"/>
<path d="M52.2435 45.0215C48.6199 45.0215 46.3449 48.9483 48.1567 52.098L51.6305 58.111L55.1043 64.124C56.9161 67.2736 61.4524 67.2736 63.2643 64.124L66.738 58.111L70.2118 52.098C72.0236 48.9483 69.7623 45.0215 66.125 45.0215H59.1911H52.2571H52.2435Z" fill="#F8F8F8"/>
<path d="M3.89695 12.7895L0.641134 7.15832C-1.17068 4.00866 1.09068 0.0818094 4.71431 0.0818094L41.5228 0C43.212 0 44.765 0.899904 45.6096 2.35884L48.6747 7.67645C50.4729 10.7988 48.2524 14.7121 44.6424 14.753L8.02462 15.1484C6.32179 15.162 4.74156 14.2621 3.89695 12.7895Z" fill="#F8F8F8"/>
<path d="M33.3489 25.6605C35.1607 22.5108 32.8993 18.584 29.2621 18.584H22.3281H15.3942C11.7705 18.584 9.49556 22.5108 11.3074 25.6605L14.7812 31.6735L18.2549 37.6865C20.0668 40.8361 24.6031 40.8361 26.4149 37.6865L29.8887 31.6735L33.3625 25.6605H33.3489Z" fill="#F8F8F8"/>
<path d="M111.534 50.012V31.9048C111.534 26.3418 113.128 22.3468 116.316 19.9061C119.504 17.4791 124.667 16.252 131.805 16.252C138.562 16.252 143.439 17.4246 146.436 19.7561C149.433 22.1013 150.931 26.1373 150.931 31.8912V42.0356H120.144V48.9621C120.144 52.1254 121.247 54.4024 123.454 55.7932C125.661 57.1839 129.08 57.8793 133.685 57.8793C138.044 57.8793 143.193 57.1158 149.133 55.6023V62.1471C143.316 63.4151 137.799 64.0423 132.554 64.0423C118.536 64.0423 111.521 59.3655 111.521 50.012H111.534ZM142.417 36.4452V29.2324C142.417 26.4509 141.572 24.542 139.91 23.4921C138.235 22.4422 135.374 21.9241 131.342 21.9241C127.309 21.9241 124.585 22.4422 122.814 23.4921C121.043 24.5283 120.158 26.4509 120.158 29.2324V36.4452H142.417Z" fill="#F8F8F8"/>
<path d="M158.247 17.2064H166.774V22.7967C167.66 18.4335 172.673 16.252 181.841 16.252C187.712 16.252 191.84 17.3155 194.21 19.4289C196.581 21.5423 197.766 24.8828 197.766 29.4369V63.1015H189.238V29.9005C189.238 28.7006 189.143 27.7189 188.952 26.9554C188.761 26.1918 188.38 25.4419 187.821 24.6783C186.554 23.0967 183.748 22.3059 179.389 22.3059C176.038 22.3059 173.463 22.5376 171.665 23.0149C169.867 23.4921 168.6 24.2693 167.878 25.3328C167.156 26.41 166.788 27.9234 166.788 29.8869V63.0742H158.26V17.2064H158.247Z" fill="#F8F8F8"/>
<path d="M203.242 57.3072L229.016 22.9746H204.196V17.1934H238.688V22.9746L212.914 57.3072H239.247V63.0885H203.242V57.3072Z" fill="#F8F8F8"/>
<path d="M261.275 63.7566L243.552 17.1934H252.842L265.634 54.6485H265.825L277.377 17.1934H286L262.978 82.8182H254.068L261.275 63.7566Z" fill="#F8F8F8"/>
</g>
<defs>
<clipPath id="clip0_149_7">
<rect width="285" height="85" fill="white"/>
</clipPath>
</defs>
</svg>
