<svg width="96" height="85" viewBox="0 0 96 85" fill="none" xmlns="http://www.w3.org/2000/svg">
<path d="M84.5701 0H91.0681C94.6918 0 96.9668 3.92685 95.1549 7.07652L76.8188 39.0231C75.9742 40.482 74.4212 41.3956 72.732 41.3956H66.6018C62.9918 41.3956 60.7304 37.5096 62.4878 34.36L80.4561 2.39974C81.2871 0.913539 82.8673 0 84.5701 0Z" fill="#020202"/>
<path d="M58.7007 19.1025C60.5125 22.2522 65.0488 22.2522 66.8607 19.1025L70.3344 13.0895L73.8082 7.07652C75.62 3.92685 73.3587 0 69.7214 0H55.8399C52.2163 0 49.9413 3.92685 51.7531 7.07652L55.2269 13.0895L58.7007 19.1025Z" fill="#020202"/>
<path d="M55.8535 76.9971L52.5977 82.6283C50.7859 85.7643 46.2495 85.778 44.4377 82.6283L25.9654 50.7635C25.1208 49.3046 25.1208 47.5048 25.9654 46.0322L29.0305 40.7146C30.8287 37.5922 35.3378 37.565 37.1768 40.6737L55.8263 72.2249C56.6981 73.6975 56.6981 75.5109 55.8535 76.9835V76.9971Z" fill="#020202"/>
<path d="M52.2435 45.0215C48.6199 45.0215 46.3449 48.9483 48.1567 52.098L51.6305 58.111L55.1043 64.124C56.9161 67.2736 61.4524 67.2736 63.2643 64.124L66.738 58.111L70.2118 52.098C72.0236 48.9483 69.7623 45.0215 66.125 45.0215H59.1911H52.2571H52.2435Z" fill="#020202"/>
<path d="M3.89695 12.7895L0.641134 7.15832C-1.17068 4.00866 1.09068 0.0818094 4.71431 0.0818094L41.5228 0C43.212 0 44.765 0.899904 45.6096 2.35884L48.6747 7.67645C50.4729 10.7988 48.2524 14.7121 44.6424 14.753L8.02462 15.1484C6.32179 15.162 4.74156 14.2621 3.89695 12.7895Z" fill="#020202"/>
<path d="M33.3489 25.6605C35.1607 22.5108 32.8993 18.584 29.2621 18.584H22.3281H15.3942C11.7705 18.584 9.49556 22.5108 11.3074 25.6605L14.7812 31.6735L18.2549 37.6865C20.0668 40.8361 24.6031 40.8361 26.4149 37.6865L29.8887 31.6735L33.3625 25.6605H33.3489Z" fill="#020202"/>
</svg>
