<svg width="174" height="67" viewBox="0 0 174 67" fill="none" xmlns="http://www.w3.org/2000/svg">
<path d="M0.534378 34.012V15.9048C0.534378 10.3418 2.12823 6.34676 5.31594 3.90611C8.50365 1.4791 13.6666 0.251953 20.8049 0.251953C27.5618 0.251953 32.4387 1.42455 35.4357 3.75612C38.4327 6.10133 39.9312 10.1373 39.9312 15.8912V26.0356H9.14391V32.9621C9.14391 36.1254 10.2473 38.4024 12.4542 39.7932C14.6611 41.1839 18.0804 41.8793 22.6848 41.8793C27.0441 41.8793 32.1935 41.1158 38.133 39.6023V46.1471C32.3161 47.4151 26.7989 48.0423 21.5542 48.0423C7.53643 48.0423 0.520752 43.3655 0.520752 34.012H0.534378ZM31.417 20.4452V13.2324C31.417 10.4509 30.5724 8.54198 28.9104 7.49209C27.2348 6.4422 24.3741 5.92407 20.3417 5.92407C16.3094 5.92407 13.5849 6.4422 11.814 7.49209C10.043 8.52834 9.15753 10.4509 9.15753 13.2324V20.4452H31.417Z" fill="#020202"/>
<path d="M47.2465 1.2064H55.7743V6.79671C56.6598 2.43354 61.6729 0.251953 70.841 0.251953C76.7124 0.251953 80.84 1.31548 83.2104 3.42889C85.5807 5.5423 86.7659 8.88285 86.7659 13.4369V47.1015H78.2381V13.9005C78.2381 12.7006 78.1428 11.7189 77.952 10.9554C77.7613 10.1918 77.3799 9.44188 76.8213 8.67833C75.5544 7.09668 72.7482 6.30585 68.3889 6.30585C65.0377 6.30585 62.463 6.53764 60.6649 7.01487C58.8667 7.49209 57.5998 8.26928 56.8778 9.3328C56.1558 10.41 55.7879 11.9234 55.7879 13.8869V47.0742H47.2601V1.2064H47.2465Z" fill="#020202"/>
<path d="M92.2422 41.3072L118.016 6.97456H93.1958V1.19336H127.688V6.97456L101.914 41.3072H128.247V47.0885H92.2422V41.3072Z" fill="#020202"/>
<path d="M150.275 47.7566L132.552 1.19336H141.842L154.634 38.6485H154.825L166.377 1.19336H175L151.978 66.8182H143.068L150.275 47.7566Z" fill="#020202"/>
</svg>
