<svg width="14" height="14" viewBox="0 0 14 14" fill="none" xmlns="http://www.w3.org/2000/svg">
<path d="M7.00547 3.40781C5.01797 3.40781 3.41484 5.01094 3.41484 6.99844C3.41484 8.98594 5.01797 10.5891 7.00547 10.5891C8.99297 10.5891 10.5961 8.98594 10.5961 6.99844C10.5961 5.01094 8.99297 3.40781 7.00547 3.40781ZM7.00547 9.33281C5.72109 9.33281 4.67109 8.28594 4.67109 6.99844C4.67109 5.71094 5.71797 4.66406 7.00547 4.66406C8.29297 4.66406 9.33984 5.71094 9.33984 6.99844C9.33984 8.28594 8.28984 9.33281 7.00547 9.33281ZM11.5805 3.26094C11.5805 3.72656 11.2055 4.09844 10.743 4.09844C10.2773 4.09844 9.90547 3.72344 9.90547 3.26094C9.90547 2.79844 10.2805 2.42344 10.743 2.42344C11.2055 2.42344 11.5805 2.79844 11.5805 3.26094ZM13.9586 4.11094C13.9055 2.98906 13.6492 1.99531 12.8273 1.17656C12.0086 0.357812 11.0148 0.101562 9.89297 0.0453125C8.73672 -0.0203125 5.27109 -0.0203125 4.11484 0.0453125C2.99609 0.0984375 2.00234 0.354687 1.18047 1.17344C0.358594 1.99219 0.105469 2.98594 0.0492187 4.10781C-0.0164062 5.26406 -0.0164062 8.72969 0.0492187 9.88594C0.102344 11.0078 0.358594 12.0016 1.18047 12.8203C2.00234 13.6391 2.99297 13.8953 4.11484 13.9516C5.27109 14.0172 8.73672 14.0172 9.89297 13.9516C11.0148 13.8984 12.0086 13.6422 12.8273 12.8203C13.6461 12.0016 13.9023 11.0078 13.9586 9.88594C14.0242 8.72969 14.0242 5.26719 13.9586 4.11094ZM12.4648 11.1266C12.2211 11.7391 11.7492 12.2109 11.1336 12.4578C10.2117 12.8234 8.02422 12.7391 7.00547 12.7391C5.98672 12.7391 3.79609 12.8203 2.87734 12.4578C2.26484 12.2141 1.79297 11.7422 1.54609 11.1266C1.18047 10.2047 1.26484 8.01719 1.26484 6.99844C1.26484 5.97969 1.18359 3.78906 1.54609 2.87031C1.78984 2.25781 2.26172 1.78594 2.87734 1.53906C3.79922 1.17344 5.98672 1.25781 7.00547 1.25781C8.02422 1.25781 10.2148 1.17656 11.1336 1.53906C11.7461 1.78281 12.218 2.25469 12.4648 2.87031C12.8305 3.79219 12.7461 5.97969 12.7461 6.99844C12.7461 8.01719 12.8305 10.2078 12.4648 11.1266Z" fill="#020202"/>
</svg>
