<svg width="15" height="16" viewBox="0 0 15 16" fill="none" xmlns="http://www.w3.org/2000/svg">
<path d="M14.3851 6.55969C13.0093 6.56298 11.6673 6.13392 10.5485 5.33313V10.9181C10.5482 11.9525 10.232 12.9622 9.64231 13.812C9.05263 14.6619 8.21755 15.3115 7.24872 15.6739C6.2799 16.0364 5.22351 16.0944 4.22081 15.8402C3.21811 15.5861 2.3169 15.0319 1.63768 14.2517C0.958465 13.4716 0.533611 12.5026 0.419933 11.4745C0.306254 10.4464 0.509169 9.40803 1.00155 8.49833C1.49392 7.58863 2.25229 6.85093 3.17524 6.38387C4.0982 5.91681 5.14175 5.74265 6.16635 5.88469V8.69375C5.69749 8.54627 5.19402 8.55071 4.72783 8.70644C4.26165 8.86217 3.85659 9.16123 3.5705 9.56089C3.28442 9.96056 3.13193 10.4404 3.13483 10.9319C3.13772 11.4234 3.29585 11.9014 3.58662 12.2977C3.8774 12.694 4.28595 12.9882 4.75394 13.1385C5.22192 13.2887 5.72542 13.2872 6.19251 13.1342C6.6596 12.9812 7.0664 12.6845 7.35483 12.2866C7.64325 11.8886 7.79855 11.4096 7.79854 10.9181V0H10.5485C10.5466 0.232231 10.5661 0.464146 10.6067 0.692813C10.7022 1.20328 10.9009 1.68888 11.1906 2.11992C11.4803 2.55096 11.8548 2.91837 12.2914 3.19969C12.9124 3.61034 13.6406 3.82922 14.3851 3.82906V6.55969Z" fill="#020202"/>
</svg>
